<svg
  xmlns="http://www.w3.org/2000/svg"
  viewBox="0 0 24 24"
  fill="currentColor"
  className="w-6 h-6"
>
  <path d="M20.447 20.452H16.89v-5.569c0-1.328-.027-3.037-1.851-3.037-1.853 0-2.136 1.445-2.136 2.941v5.665H9.347V9h3.414v1.561h.049c.476-.9 1.637-1.85 3.368-1.85 3.6 0 4.268 2.369 4.268 5.455v6.286zM5.337 7.433a1.98 1.98 0 110-3.96 1.98 1.98 0 010 3.96zM6.978 20.452H3.693V9h3.285v11.452zM22.225 0H1.771C.792 0 0 .774 0 1.728v20.543C0 23.226.792 24 1.771 24h20.451C23.2 24 24 23.226 24 22.271V1.728C24 .774 23.2 0 22.222 0z" />
</svg>
